# xmcd
# Track frame offsets:
# 150
# 16820
# 30585
# 46080
# 60205
# 74837
# 91870
# 106350
# 116157
# 139705
# 154770
# 170582
#
# Disc length: 2464 seconds
# Revision: 2
# Processed by: cddbd v1.5.2PL0 Copyright (c) Steve Scherf et al.
# Submitted via: VisiTrax 2.10.1.251 - For more info visit www.synapsa.com
#
DISCID=97099e0c
DTITLE=Deacon Jones - Makin' Blues History
DYEAR=1998
DGENRE=Blues
TTITLE0=Singin' the Blues
TTITLE1=Somethin's Wrong
TTITLE2=I Should Have Known
TTITLE3=Drinkin' Bad Whiskey
TTITLE4=Shaken
TTITLE5=Sho Ain't Nothin' Nice
TTITLE6=Half That Woman
TTITLE7=If You Only Knew
TTITLE8=I'll Always Love You
TTITLE9=It's a Shame
TTITLE10=Your Sweet Lovin'
TTITLE11=Poeple Don't Care
EXTD=
EXTT0=
EXTT1=
EXTT2=
EXTT3=
EXTT4=
EXTT5=
EXTT6=
EXTT7=
EXTT8=
EXTT9=
EXTT10=
EXTT11=
PLAYORDER=
